<svg xmlns="http://www.w3.org/2000/svg" viewBox="0 0 1000 800">
  <!-- Background map of France and surrounding countries -->
  <image href="https://raw.githubusercontent.com/Dracarion/Wine/main/background.jpeg.jpg" width="1000" height="800" preserveAspectRatio="xMidYMid slice"/>
  
  <!-- Champagne region highlight -->
  <circle cx="520" cy="280" r="30" fill="#ff6600" opacity="0.7"/>
  
  <!-- Arrow pointing to Champagne region -->
  <path d="M700,100 Q600,200 550,270" fill="none" stroke="#000000" stroke-width="3" marker-end="url(#arrowhead)"/>
  <defs>
    <marker id="arrowhead" markerWidth="10" markerHeight="7" refX="0" refY="3.5" orient="auto">
      <polygon points="0 0, 10 3.5, 0 7" fill="#000000"/>
    </marker>
  </defs>
  
  <!-- Zoomed in Champagne region -->
  <rect x="600" y="50" width="350" height="700" fill="#ffffff" stroke="#333333" stroke-width="2"/>
  
  <!-- Detailed Champagne map -->
  <image href="https://raw.githubusercontent.com/Dracarion/Wine/main/IMG_6052.jpeg" x="600" y="50" width="350" height="700" preserveAspectRatio="xMidYMid slice"/>
  
  <!-- Wine regions with enhanced labels -->
  <g transform="translate(600,50) scale(0.583)">
    <g transform="translate(150,150)">
      <rect x="-80" y="-30" width="160" height="60" rx="10" fill="#7e2f45" opacity="0.9"/>
      <text x="0" y="-5" font-size="18" fill="#ffffff" text-anchor="middle" dominant-baseline="middle">PINOT NERO</text>
      <text x="0" y="15" font-size="12" fill="#ffffff" text-anchor="middle">Montagne de Reims</text>
    </g>
    <g transform="translate(450,950)">
      <rect x="-80" y="-30" width="160" height="60" rx="10" fill="#7e2f45" opacity="0.9"/>
      <text x="0" y="-5" font-size="18" fill="#ffffff" text-anchor="middle" dominant-baseline="middle">PINOT NERO</text>
      <text x="0" y="15" font-size="12" fill="#ffffff" text-anchor="middle">Côte des Bar</text>
    </g>
    <g transform="translate(100,500)">
      <rect x="-80" y="-30" width="160" height="60" rx="10" fill="#a18e7f" opacity="0.9"/>
      <text x="0" y="-5" font-size="18" fill="#ffffff" text-anchor="middle" dominant-baseline="middle">PINOT MEUNIER</text>
      <text x="0" y="15" font-size="12" fill="#ffffff" text-anchor="middle">Vallée de la Marne</text>
    </g>
    <g transform="translate(400,350)">
      <rect x="-80" y="-30" width="160" height="60" rx="10" fill="#f9e04c" opacity="0.9"/>
      <text x="0" y="-5" font-size="18" fill="#333333" text-anchor="middle" dominant-baseline="middle">CHARDONNAY</text>
      <text x="0" y="15" font-size="12" fill="#333333" text-anchor="middle">Côte des Blancs</text>
    </g>
    <g transform="translate(500,700)">
      <rect x="-80" y="-30" width="160" height="60" rx="10" fill="#f9e04c" opacity="0.9"/>
      <text x="0" y="-5" font-size="18" fill="#333333" text-anchor="middle" dominant-baseline="middle">CHARDONNAY</text>
      <text x="0" y="15" font-size="12" fill="#333333" text-anchor="middle">Côte de Sézanne</text>
    </g>
  </g>
</svg>
