<svg xmlns="http://www.w3.org/2000/svg" viewBox="0 0 1000 800">
  <defs>
    <marker id="arrowhead" markerWidth="10" markerHeight="7" refX="0" refY="3.5" orient="auto">
      <polygon points="0 0, 10 3.5, 0 7" fill="#000000"/>
    </marker>
    <g id="stylized-grape-cluster">
      <circle cx="0" cy="0" r="10" fill="#4B0082"/>
      <circle cx="12" cy="8" r="10" fill="#4B0082"/>
      <circle cx="-12" cy="8" r="10" fill="#4B0082"/>
      <path d="M-5,-10 Q0,-20 5,-10" fill="none" stroke="#2E8B57" stroke-width="3"/>
      <path d="M-10,0 Q-15,-5 -20,-3" fill="none" stroke="#2E8B57" stroke-width="2"/>
      <path d="M10,0 Q15,-5 20,-3" fill="none" stroke="#2E8B57" stroke-width="2"/>
    </g>
  </defs>

  <image href="background.jpeg.jpg" width="1000" height="800" preserveAspectRatio="xMidYMid slice"/>
  
  <circle cx="520" cy="280" r="30" fill="#ff6600" opacity="0.7"/>
  
  <path d="M700,100 Q600,200 550,270" fill="none" stroke="#000000" stroke-width="3" marker-end="url(#arrowhead)"/>
  
  <g transform="translate(550, 350) scale(0.55)">
    <rect width="700" height="700" fill="#ffffff" stroke="#333333" stroke-width="2"/>
    <image href="IMG_6060.jpeg" width="700" height="700" preserveAspectRatio="xMidYMid slice"/>
    
    <g transform="scale(0.8)">
      <g transform="translate(150,150)">
        <rect x="-80" y="-30" width="160" height="60" rx="10" fill="#7e2f45" opacity="0.9"/>
        <text x="0" y="-5" font-size="18" fill="#ffffff" text-anchor="middle" dominant-baseline="middle">PINOT NERO</text>
        <text x="0" y="15" font-size="12" fill="#ffffff" text-anchor="middle">Montagne de Reims</text>
      </g>
      <g transform="translate(450,950)">
        <rect x="-80" y="-30" width="160" height="60" rx="10" fill="#7e2f45" opacity="0.9"/>
        <text x="0" y="-5" font-size="18" fill="#ffffff" text-anchor="middle" dominant-baseline="middle">PINOT NERO</text>
        <text x="0" y="15" font-size="12" fill="#ffffff" text-anchor="middle">Cote des Bar</text>
      </g>
      <g transform="translate(100,500)">
        <rect x="-80" y="-30" width="160" height="60" rx="10" fill="#a18e7f" opacity="0.9"/>
        <text x="0" y="-5" font-size="18" fill="#ffffff" text-anchor="middle" dominant-baseline="middle">PINOT MEUNIER</text>
        <text x="0" y="15" font-size="12" fill="#ffffff" text-anchor="middle">Vallee de la Marne</text>
      </g>
      <g transform="translate(400,350)">
        <rect x="-80" y="-30" width="160" height="60" rx="10" fill="#f9e04c" opacity="0.9"/>
        <text x="0" y="-5" font-size="18" fill="#333333" text-anchor="middle" dominant-baseline="middle">CHARDONNAY</text>
        <text x="0" y="15" font-size="12" fill="#333333" text-anchor="middle">Cote des Blancs</text>
      </g>
      <g transform="translate(500,700)">
        <rect x="-80" y="-30" width="160" height="60" rx="10" fill="#f9e04c" opacity="0.9"/>
        <text x="0" y="-5" font-size="18" fill="#333333" text-anchor="middle" dominant-baseline="middle">CHARDONNAY</text>
        <text x="0" y="15" font-size="12" fill="#333333" text-anchor="middle">Cote de Sezanne</text>
      </g>
    </g>
  </g>
  
  <text x="100" y="100" font-family="Tangerine, cursive" font-size="80" fill="#8B4513" stroke="#4A1500" stroke-width="1">La Barrique</text>
  <text x="100" y="150" font-family="Cinzel Decorative, serif" font-size="24" fill="#8B4513">Chardonnay, Francia</text>
  
  <path d="M10,10 Q500,0 990,10 Q1000,400 990,790 Q500,800 10,790 Q0,400 10,10" 
        fill="none" stroke="#2E8B57" stroke-width="5"/>
  
  <use href="#stylized-grape-cluster" x="50" y="50" transform="scale(0.8)"/>
  <use href="#stylized-grape-cluster" x="950" y="50" transform="scale(0.8)"/>
  <use href="#stylized-grape-cluster" x="50" y="750" transform="scale(0.8)"/>
  <use href="#stylized-grape-cluster" x="950" y="750" transform="scale(0.8)"/>
  
  <path d="M20,20 Q40,0 60,20 Q40,40 20,20" fill="#2E8B57" opacity="0.7"/>
  <path d="M980,20 Q960,0 940,20 Q960,40 980,20" fill="#2E8B57" opacity="0.7"/>
  <path d="M20,780 Q40,760 60,780 Q40,800 20,780" fill="#2E8B57" opacity="0.7"/>
  <path d="M980,780 Q960,760 940,780 Q960,800 980,780" fill="#2E8B57" opacity="0.7"/>
</svg>
